<?xml version="1.0" standalone="no"?>
<!DOCTYPE svg PUBLIC "-//W3C//DTD SVG 20010904//EN"
 "http://www.w3.org/TR/2001/REC-SVG-20010904/DTD/svg10.dtd">
<svg version="1.0" xmlns="http://www.w3.org/2000/svg"
 width="195.000000pt" height="154.000000pt" viewBox="0 0 195.000000 154.000000"
 preserveAspectRatio="xMidYMid meet">
<metadata>
Created by potrace 1.10, written by Peter Selinger 2001-2011
</metadata>
<g transform="translate(0.000000,154.000000) scale(0.100000,-0.100000)"
fill="#f7f7f7" stroke="none">
<path d="M726 1276 c-115 -49 -189 -140 -215 -268 -31 -150 56 -315 206 -389
40 -19 64 -24 138 -24 83 0 96 3 159 34 66 32 70 33 83 15 7 -10 11 -24 9 -30
-7 -17 207 -224 232 -224 21 0 72 52 72 74 0 16 -195 209 -218 216 -10 3 -28
13 -41 22 l-24 17 26 30 c37 45 61 125 61 207 -1 131 -82 256 -203 312 -82 39
-203 42 -285 8z m261 -74 c94 -48 145 -127 151 -234 9 -152 -77 -266 -225
-297 -91 -19 -169 5 -243 75 -118 110 -120 285 -6 399 30 30 70 59 96 68 62
23 171 17 227 -11z m118 -482 c-7 -11 51 -66 79 -76 19 -6 186 -172 186 -185
0 -3 -6 -12 -14 -18 -19 -16 -43 -3 -84 43 -16 19 -33 32 -36 29 -3 -4 -6 2
-6 12 0 10 -3 16 -6 13 -7 -8 -46 32 -63 65 -8 15 -19 27 -25 27 -6 0 -6 4 2
8 9 6 5 12 -13 22 -14 7 -25 19 -25 26 0 8 -6 11 -15 8 -20 -8 -19 6 3 22 21
16 25 17 17 4z"/>
<path d="M772 1153 c-52 -25 -131 -109 -133 -142 -4 -85 4 -148 23 -176 37
-53 72 -86 108 -102 37 -15 153 -26 145 -13 -2 4 -29 7 -59 8 -74 0 -123 29
-170 99 -30 46 -36 65 -36 108 0 90 26 139 102 191 36 25 58 30 157 34 33 1
-3 14 -43 16 -28 1 -61 -7 -94 -23z"/>
<path d="M966 1134 c83 -56 108 -99 108 -191 1 -40 5 -73 9 -73 5 0 6 4 2 9
-3 5 -1 12 5 16 15 9 12 40 -10 116 -17 57 -28 75 -65 106 -24 20 -54 38 -66
40 -17 3 -12 -4 17 -23z"/>
<path d="M885 995 c-30 -29 -31 -45 -5 -73 25 -27 61 -28 83 -4 23 25 21 58
-3 82 -26 26 -46 25 -75 -5z m63 -4 c8 -5 12 -21 10 -37 -2 -24 -8 -29 -30
-30 -18 -1 -28 4 -28 13 0 8 -4 12 -8 9 -5 -3 -8 4 -7 15 2 32 36 48 63 30z"/>
<path d="M784 869 c-3 -6 0 -17 8 -25 13 -13 16 -13 27 0 7 8 10 20 6 26 -8
13 -32 13 -41 -1z"/>
<path d="M1040 827 c-24 -40 -80 -87 -105 -87 -9 0 -14 -4 -10 -10 7 -12 51 6
83 34 29 25 66 85 59 93 -4 3 -16 -10 -27 -30z"/>
<path d="M1180 1250 c0 -27 3 -30 30 -30 27 0 30 3 30 30 0 27 -3 30 -30 30
-27 0 -30 -3 -30 -30z"/>
<path d="M1296 1273 c-3 -3 -6 -17 -6 -30 0 -19 5 -23 30 -23 26 0 30 4 30 28
0 22 -5 28 -24 30 -13 1 -26 -1 -30 -5z"/>
<path d="M1260 1135 c0 -21 5 -25 30 -25 25 0 30 4 30 25 0 21 -5 25 -30 25
-25 0 -30 -4 -30 -25z"/>
<path d="M1380 1135 c0 -21 5 -25 30 -25 25 0 30 4 30 25 0 21 -5 25 -30 25
-25 0 -30 -4 -30 -25z"/>
<path d="M1260 1025 c0 -21 5 -25 30 -25 25 0 30 4 30 25 0 21 -5 25 -30 25
-25 0 -30 -4 -30 -25z"/>
<path d="M1306 263 c-3 -3 -6 -57 -6 -120 0 -94 3 -113 15 -113 11 0 15 13 15
54 0 57 15 80 47 74 15 -3 18 -14 19 -63 1 -47 5 -61 18 -63 13 -3 16 6 16 58
0 34 -5 70 -10 81 -12 22 -59 26 -78 7 -9 -9 -12 -2 -12 34 0 44 -10 65 -24
51z"/>
<path d="M240 144 l0 -114 54 0 c73 0 106 27 113 93 6 55 -9 100 -40 115 -12
6 -46 13 -74 15 l-53 4 0 -113z m112 59 c22 -26 28 -60 16 -94 -11 -33 -35
-49 -72 -49 -26 0 -26 1 -26 80 l0 80 33 0 c20 0 40 -7 49 -17z"/>
<path d="M1130 232 c-73 -73 -30 -202 67 -202 33 0 83 36 83 60 0 17 -26 11
-45 -10 -10 -11 -28 -20 -41 -20 -30 0 -64 45 -64 85 0 38 34 85 61 85 11 0
30 -11 43 -25 23 -25 46 -33 46 -16 0 23 -15 43 -41 56 -43 23 -77 18 -109
-13z"/>
<path d="M1760 144 c0 -105 2 -115 18 -112 9 2 16 10 14 18 -4 19 7 60 16 60
4 0 17 -18 30 -40 15 -26 30 -40 43 -40 22 0 20 5 -18 56 -29 39 -29 42 4 76
26 27 26 28 5 28 -12 0 -31 -13 -44 -30 -12 -16 -26 -30 -31 -30 -5 0 -8 29
-5 65 3 57 2 65 -14 65 -16 0 -18 -11 -18 -116z"/>
<path d="M446 168 c-56 -80 39 -183 106 -116 26 26 9 37 -29 17 -27 -14 -56
-4 -61 23 -2 11 8 14 48 12 57 -3 70 9 49 48 -16 31 -28 38 -66 38 -22 0 -37
-7 -47 -22z m72 -10 c21 -21 13 -33 -23 -34 -20 0 -35 4 -35 11 0 14 21 35 35
35 6 0 16 -5 23 -12z"/>
<path d="M590 109 c0 -71 2 -80 17 -77 14 3 17 12 15 45 -4 50 11 83 38 83 11
0 20 7 20 15 0 18 -31 20 -48 3 -9 -9 -12 -9 -12 0 0 7 -7 12 -15 12 -12 0
-15 -16 -15 -81z"/>
<path d="M699 188 c0 -2 -3 -38 -5 -80 -5 -73 -4 -78 15 -78 18 0 20 7 23 63
3 59 4 62 28 62 24 0 25 -3 28 -63 2 -46 7 -62 17 -62 11 0 15 13 15 49 0 65
7 81 36 81 23 0 24 -3 24 -65 0 -59 2 -65 21 -65 15 0 19 4 15 16 -3 9 -6 42
-6 75 0 55 -2 59 -27 65 -15 4 -34 2 -46 -5 -14 -9 -22 -10 -30 -2 -14 14 -50
14 -64 0 -8 -8 -13 -8 -17 0 -6 10 -25 15 -27 9z"/>
<path d="M955 168 c-14 -20 -14 -23 0 -26 8 -2 22 4 31 12 19 20 28 20 44 1
16 -19 16 -19 -40 -36 -48 -15 -64 -45 -40 -75 15 -17 61 -19 78 -2 9 9 12 9
12 0 0 -7 7 -12 15 -12 22 0 21 122 -1 144 -24 24 -80 20 -99 -6z m83 -74 c-4
-22 -31 -39 -51 -31 -20 8 -12 34 11 40 34 9 43 7 40 -9z"/>
<path d="M1470 163 c-25 -32 -22 -83 6 -114 23 -25 76 -25 99 1 22 24 12 39
-15 22 -29 -18 -58 -15 -70 8 -12 23 -12 22 53 20 44 -1 47 0 47 24 0 63 -81
89 -120 39z m71 -3 c31 -17 23 -39 -13 -38 -45 1 -52 7 -32 29 20 22 20 22 45
9z"/>
<path d="M1627 172 c-26 -29 -23 -107 5 -126 42 -29 108 -9 108 32 0 17 -21
15 -35 -4 -8 -12 -20 -15 -38 -10 -24 6 -27 11 -27 46 0 50 23 65 62 42 34
-20 48 -9 23 18 -23 25 -76 26 -98 2z"/>
</g>
</svg>
