<?xml version="1.0" standalone="no"?>
<!DOCTYPE svg PUBLIC "-//W3C//DTD SVG 20010904//EN"
 "http://www.w3.org/TR/2001/REC-SVG-20010904/DTD/svg10.dtd">
<svg version="1.0" xmlns="http://www.w3.org/2000/svg"
 width="116.000000pt" height="126.000000pt" viewBox="0 0 116.000000 126.000000"
 preserveAspectRatio="xMidYMid meet">
<metadata>
Created by potrace 1.10, written by Peter Selinger 2001-2011
</metadata>
<g transform="translate(0.000000,126.000000) scale(0.100000,-0.100000)"
fill="#000000" stroke="none">
<path d="M316 996 c-84 -35 -139 -86 -180 -166 -94 -180 -22 -391 166 -486 99
-50 240 -42 331 20 l37 25 16 -24 c9 -13 13 -28 10 -33 -9 -14 208 -222 232
-222 21 0 72 52 72 75 0 16 -195 208 -218 215 -10 3 -28 13 -41 22 l-24 17 26
30 c37 45 61 125 61 207 -1 131 -82 256 -203 312 -82 39 -203 42 -285 8z m216
-56 c112 -32 198 -146 198 -265 0 -145 -77 -245 -215 -281 -96 -25 -175 -2
-256 73 -117 109 -119 284 -5 398 76 76 176 103 278 75z m158 -505 c-11 -13
-10 -14 6 -8 17 6 18 5 4 -12 -14 -17 -13 -18 2 -13 9 4 23 -1 34 -13 9 -10
25 -19 34 -19 9 0 23 -11 30 -25 7 -14 15 -23 17 -21 9 9 94 -84 87 -95 -4 -7
-3 -9 3 -6 6 4 20 -5 33 -18 18 -19 21 -27 11 -39 -7 -8 -17 -13 -24 -12 -20
3 -89 75 -82 86 3 6 0 7 -9 4 -9 -3 -16 -1 -16 6 0 6 -4 8 -10 5 -9 -6 -14 7
-11 27 0 4 -5 5 -12 2 -8 -3 -25 12 -41 36 -16 25 -22 40 -14 40 7 0 -6 13
-30 29 -40 26 -42 30 -27 45 21 20 32 21 15 1z"/>
<path d="M376 879 c-47 -17 -111 -67 -101 -77 3 -3 14 5 25 18 11 13 20 19 20
15 0 -5 10 1 23 13 12 11 35 23 51 26 29 5 43 13 35 20 -2 2 -26 -4 -53 -15z"/>
<path d="M599 823 c29 -28 52 -54 51 -58 -1 -4 1 -9 4 -12 3 -4 6 0 6 7 0 22
-49 79 -83 96 -26 14 -23 8 22 -33z"/>
<path d="M479 723 c-27 -31 -30 -41 -17 -67 15 -34 51 -43 83 -22 43 28 28 88
-25 101 -18 4 -31 1 -41 -12z m61 -17 c6 -8 10 -25 8 -38 -4 -29 -48 -37 -69
-12 -12 16 -12 17 1 9 13 -8 13 -7 1 8 -12 15 -12 19 5 32 24 18 39 19 54 1z"/>
<path d="M667 685 c7 -69 9 -75 15 -43 2 13 -2 41 -8 63 -13 39 -13 39 -7 -20z"/>
<path d="M230 678 c0 -60 11 -119 21 -113 4 3 3 19 -3 35 -5 17 -8 50 -6 75 2
25 0 45 -4 45 -5 0 -8 -19 -8 -42z"/>
<path d="M374 589 c-3 -6 0 -17 8 -25 13 -13 16 -13 27 0 7 8 10 20 6 26 -8
13 -32 13 -41 -1z"/>
<path d="M260 544 c1 -14 45 -60 69 -74 31 -16 37 -6 9 12 -13 9 -35 28 -50
43 -16 15 -28 24 -28 19z"/>
<path d="M580 489 c-19 -15 -30 -29 -25 -29 14 0 71 47 65 53 -3 3 -21 -8 -40
-24z"/>
<path d="M770 969 c0 -26 3 -29 30 -29 26 0 30 4 30 28 0 25 -4 29 -30 30 -27
1 -30 -3 -30 -29z"/>
<path d="M886 993 c-3 -3 -6 -17 -6 -30 0 -19 5 -23 30 -23 26 0 30 4 30 28 0
22 -5 28 -24 30 -13 1 -26 -1 -30 -5z"/>
<path d="M850 855 c0 -21 5 -25 30 -25 25 0 30 4 30 25 0 21 -5 25 -30 25 -25
0 -30 -4 -30 -25z"/>
<path d="M970 855 c0 -21 5 -25 30 -25 25 0 30 4 30 25 0 21 -5 25 -30 25 -25
0 -30 -4 -30 -25z"/>
<path d="M850 745 c0 -21 5 -25 30 -25 25 0 30 4 30 25 0 21 -5 25 -30 25 -25
0 -30 -4 -30 -25z"/>
</g>
</svg>
